# xmcd
#
# Track frame offsets:
#	150
#	14959
#	26555
#	40239
#	54735
#	70368
#	87713
#	102898
#	118648
#	131161
#	142683
#
# Disc length: 2118 seconds
#
# Revision: 0
# Processed by: cddbd v1.5.2PL0 Copyright (c) Steve Scherf et al.
# Submitted via: dBpowerAMP V4.0
#
DISCID=a108440b
DTITLE=Percy Sledge - Memories of Percy Sledge CD2
DYEAR=1900
DGENRE=
TTITLE0=Warm and Tender Love
TTITLE1=Tell It Like It Is
TTITLE2=My Special Prayer
TTITLE3=Track04I'll Be Your Everything
TTITLE4=Bring It On Home To Me
TTITLE5=Try A Little Tenderness
TTITLE6=Out Of Left Field
TTITLE7=Just Out Of Reach
TTITLE8=Cover Me
TTITLE9=(Sitting On ) The Dock Of The Bay
TTITLE10=Make It Good And Make It Last
EXTD=Memories of Percy Sledge
EXTT0=
EXTT1=
EXTT2=
EXTT3=
EXTT4=
EXTT5=
EXTT6=
EXTT7=
EXTT8=
EXTT9=
EXTT10=
PLAYORDER=
